<svg xmlns="http://www.w3.org/2000/svg" xmlns:xlink="http://www.w3.org/1999/xlink" width="500" zoomAndPan="magnify" viewBox="0 0 375 374.999991" height="500" preserveAspectRatio="xMidYMid meet" version="1.0"><path fill="#8a8a8a" d="M 198.671875 179.671875 L 342.386719 36.488281 C 345.582031 33.296875 345.582031 28.503906 342.386719 25.3125 C 339.195312 22.117188 334.402344 22.117188 331.210938 25.3125 L 187.496094 168.492188 L 44.3125 24.777344 C 41.121094 21.585938 36.328125 21.585938 33.136719 24.777344 C 29.941406 27.972656 29.941406 32.761719 33.136719 35.957031 L 176.316406 179.671875 L 32.601562 322.855469 C 29.410156 326.046875 29.410156 330.835938 32.601562 334.03125 C 35.796875 337.226562 41.121094 337.226562 43.78125 334.03125 L 187.496094 190.847656 L 330.679688 334.03125 C 332.273438 335.628906 334.402344 336.160156 336.53125 336.160156 C 338.660156 336.160156 340.789062 335.097656 342.386719 334.03125 C 345.582031 330.835938 345.582031 326.046875 342.386719 322.855469 Z M 198.671875 179.671875 " fill-opacity="1" fill-rule="nonzero"/></svg>